<?xml version="1.0" encoding="utf-8"?><svg xmlns="http://www.w3.org/2000/svg" xmlns:xlink="http://www.w3.org/1999/xlink" width="210" height="30" style="background: #006600; border-radius: 0.25rem"><svg xmlns="http://www.w3.org/2000/svg" role="img" viewBox="0 0 24 24" width="36" style="fill: #ffffff"><title>4chan</title><path d="M11.07 8.82S9.803 1.079 5.145 1.097C2.006 1.109.78 4.124 3.055 4.802c0 0-2.698.973-2.698 2.697 0 1.725 4.274 3.54 10.713 1.32zm1.931 5.924s.904 7.791 5.558 7.991c3.136.135 4.503-2.82 2.262-3.604 0 0 2.74-.845 2.82-2.567.08-1.723-4.105-3.737-10.64-1.82zm-3.672-1.55s-7.532 2.19-6.952 6.813c.39 3.114 3.53 3.969 3.93 1.63 0 0 1.29 2.559 3.002 2.351 1.712-.208 3-4.67.02-10.794zm5.623-2.467s7.727-1.35 7.66-6.008c-.046-3.138-3.074-4.333-3.728-2.051 0 0-1-2.686-2.726-2.668-1.724.018-3.494 4.312-1.206 10.727z" /></svg><text x="18%" y="68%" style="fill: #ffffff; font-size: 90%; font-family: Verdana">4chan</text></svg>