<?xml version="1.0" encoding="utf-8"?><svg xmlns="http://www.w3.org/2000/svg" xmlns:xlink="http://www.w3.org/1999/xlink" width="210" height="30" style="background: #C9292C; border-radius: 0.25rem"><svg xmlns="http://www.w3.org/2000/svg" role="img" viewBox="0 0 24 24" width="36" style="fill: #ffffff"><title>ARK Ecosystem</title><path d="M1.8 0C.806 0 0 .805 0 1.8v20.4c0 .995.805 1.8 1.8 1.8h20.4c.995 0 1.8-.805 1.8-1.8V1.8c0-.995-.805-1.8-1.8-1.8H1.8zm10.223 4.39l9.29 15.098-9.29-9.82-9.351 9.82 9.351-15.097zm0 7.583l1.633 1.691h-3.285l1.652-1.691zM9.31 14.762h5.41l1.496 1.574H7.813l1.496-1.574z" /></svg><text x="18%" y="68%" style="fill: #ffffff; font-size: 90%; font-family: Verdana">ARK Ecosystem</text></svg>