<?xml version="1.0" encoding="utf-8"?><svg xmlns="http://www.w3.org/2000/svg" xmlns:xlink="http://www.w3.org/1999/xlink" width="210" height="30" style="background: #D33C43; border-radius: 0.25rem"><svg xmlns="http://www.w3.org/2000/svg" role="img" viewBox="0 0 24 24" width="36" style="fill: #ffffff"><title>CakePHP</title><path d="M0 13.875v3.745c0 2.067 5.37 3.743 12 3.743V17.62c-6.63 0-12-1.68-12-3.743v-.002zm21.384 2.333L12 13.875v3.745l9.384 2.333C23.02 19.313 24 18.503 24 17.62v-3.745c0 .882-.98 1.692-2.616 2.333zM12 10.133v3.742c-6.627 0-12-1.677-12-3.744V6.38c0-2.064 5.37-3.743 12-3.743 6.625 0 12 1.68 12 3.744v3.75c0 .883-.98 1.69-2.616 2.334L12 10.13v.003z" /></svg><text x="18%" y="68%" style="fill: #ffffff; font-size: 90%; font-family: Verdana">CakePHP</text></svg>