<?xml version="1.0" encoding="utf-8"?><svg xmlns="http://www.w3.org/2000/svg" xmlns:xlink="http://www.w3.org/1999/xlink" width="210" height="30" style="background: #2185D0; border-radius: 0.25rem"><svg xmlns="http://www.w3.org/2000/svg" role="img" viewBox="0 0 24 24" width="36" style="fill: #ffffff"><title>Codeberg</title><path d="M11.955.49A12 12 0 0 0 0 12.49a12 12 0 0 0 1.832 6.373L11.838 5.928a.187.14 0 0 1 .324 0l10.006 12.935A12 12 0 0 0 24 12.49a12 12 0 0 0-12-12 12 12 0 0 0-.045 0zm.375 6.467l4.416 16.553a12 12 0 0 0 5.137-4.213z" /></svg><text x="18%" y="68%" style="fill: #ffffff; font-size: 90%; font-family: Verdana">Codeberg</text></svg>