<?xml version="1.0" encoding="utf-8"?><svg xmlns="http://www.w3.org/2000/svg" xmlns:xlink="http://www.w3.org/1999/xlink" width="210" height="30" style="background: #432975; border-radius: 0.25rem"><svg xmlns="http://www.w3.org/2000/svg" role="img" viewBox="0 0 24 24" width="36" style="fill: #ffffff"><title>D-EDGE</title><path d="M19.986 0v8.338C16.09 2.93 7.61 2.8 3.74 8.733-.523 15.27 4.191 23.99 11.996 24h.001c5.447-.003 9.872-4.43 9.87-9.877V0Zm-7.99 6.14a8.004 8.004 0 0 1 7.99 7.988 7.986 7.986 0 0 1-4.93 7.381 7.986 7.986 0 0 1-8.707-1.73 7.985 7.985 0 0 1-1.733-8.707 7.986 7.986 0 0 1 7.38-4.932Z" /></svg><text x="18%" y="68%" style="fill: #ffffff; font-size: 90%; font-family: Verdana">D-EDGE</text></svg>