<?xml version="1.0" encoding="utf-8"?><svg xmlns="http://www.w3.org/2000/svg" xmlns:xlink="http://www.w3.org/1999/xlink" width="210" height="30" style="background: #000000; border-radius: 0.25rem"><svg xmlns="http://www.w3.org/2000/svg" role="img" viewBox="0 0 24 24" width="36" style="fill: #ffffff"><title>Digg</title><path d="M17.76 8.16v8.16h3.84v.96h-3.84v1.92H24V8.16h-6.24zm-7.2 0v8.16h3.84v.96h-3.84v1.92h6.24V8.16h-6.24zM3.84 4.8v3.36H0v8.16h6.24V4.8h-2.4zM9.6 8.16H7.2v8.16h2.4V8.16zm12 6.24h-1.44v-4.32h1.44v4.32zm-17.76 0H2.4v-4.32h1.44v4.32zm10.56 0h-1.44v-4.32h1.44v4.32zM9.6 4.8H7.2v2.4h2.4V4.8z" /></svg><text x="18%" y="68%" style="fill: #ffffff; font-size: 90%; font-family: Verdana">Digg</text></svg>