<?xml version="1.0" encoding="utf-8"?><svg xmlns="http://www.w3.org/2000/svg" xmlns:xlink="http://www.w3.org/1999/xlink" width="210" height="30" style="background: #19C4BE; border-radius: 0.25rem"><svg xmlns="http://www.w3.org/2000/svg" role="img" viewBox="0 0 24 24" width="36" style="fill: #ffffff"><title>Drooble</title><path d="M24 11.986a7.599 7.599 0 0 0-7-7.559v7.574a5 5 0 0 1-10 0c0-3.604 3.707-6.022 7-4.583V.17C6.615-1.069 0 4.63 0 12c0 6.628 5.373 12 12 12 6.628 0 12-5.372 12-12v-.014m-14 .015a2 2 0 1 0 4 0 2 2 0 0 0-4 0m14-.015a7.599 7.599 0 0 0-7-7.559v7.574a5 5 0 0 1-10 0c0-3.604 3.707-6.022 7-4.583V.17C6.615-1.069 0 4.63 0 12c0 6.628 5.373 12 12 12 6.628 0 12-5.372 12-12v-.014m-14 .015a2 2 0 1 0 4 0 2 2 0 0 0-4 0Z" /></svg><text x="18%" y="68%" style="fill: #ffffff; font-size: 90%; font-family: Verdana">Drooble</text></svg>