<?xml version="1.0" encoding="utf-8"?><svg xmlns="http://www.w3.org/2000/svg" xmlns:xlink="http://www.w3.org/1999/xlink" width="210" height="30" style="background: #E73D2F; border-radius: 0.25rem"><svg xmlns="http://www.w3.org/2000/svg" role="img" viewBox="0 0 24 24" width="36" style="fill: #ffffff"><title>E3</title><path d="M11.0676 16.5185H4.7723v-2.6738h6.2615v-3.757H4.7723v-2.64h6.2615V3.691H0v16.6184h14.1476c0-.0339-2.7754-.7108-3.08-3.7908zm10.12-6.3969c1.8954 1.2862 2.8769 2.5385 2.8092 5.1108-.0677 2.6738-2.7754 5.043-5.72 5.043-2.0984 0-4.7723-.9477-5.7876-3.7569l3.4861-1.5569c.4738.88 1.1508 1.557 2.2 1.557 1.1507 0 1.9969-.88 2.0984-1.997.0339-.2708-.1353-2.2338-2.0984-2.3015l-2.2-.237 2.8092-4.5353h-6.3292v-3.757h11.5415z" /></svg><text x="18%" y="68%" style="fill: #ffffff; font-size: 90%; font-family: Verdana">E3</text></svg>