<?xml version="1.0" encoding="utf-8"?><svg xmlns="http://www.w3.org/2000/svg" xmlns:xlink="http://www.w3.org/1999/xlink" width="210" height="30" style="background: #4B275F; border-radius: 0.25rem"><svg xmlns="http://www.w3.org/2000/svg" role="img" viewBox="0 0 24 24" width="36" style="fill: #ffffff"><title>Elixir</title><path d="M19.793 16.575c0 3.752-2.927 7.426-7.743 7.426-5.249 0-7.843-3.71-7.843-8.29 0-5.21 3.892-12.952 8-15.647a.397.397 0 0 1 .61.371 9.716 9.716 0 0 0 1.694 6.518c.522.795 1.092 1.478 1.763 2.352.94 1.227 1.637 1.906 2.644 3.842l.015.028a7.107 7.107 0 0 1 .86 3.4z" /></svg><text x="18%" y="68%" style="fill: #ffffff; font-size: 90%; font-family: Verdana">Elixir</text></svg>