<?xml version="1.0" encoding="utf-8"?><svg xmlns="http://www.w3.org/2000/svg" xmlns:xlink="http://www.w3.org/1999/xlink" width="210" height="30" style="background: #81B441; border-radius: 0.25rem"><svg xmlns="http://www.w3.org/2000/svg" role="img" viewBox="0 0 24 24" width="36" style="fill: #ffffff"><title>Envato</title><path d="M20.058 1.043C16.744-2.841 6.018 4.682 6.104 14.38a.459.459 0 0 1-.45.451.459.459 0 0 1-.388-.221 10.387 10.387 0 0 1-.412-7.634.42.42 0 0 0-.712-.412 10.284 10.284 0 0 0-2.784 7.033A10.284 10.284 0 0 0 11.76 23.999c14.635-.332 11.257-19.491 8.298-22.956z" /></svg><text x="18%" y="68%" style="fill: #ffffff; font-size: 90%; font-family: Verdana">Envato</text></svg>