<?xml version="1.0" encoding="utf-8"?><svg xmlns="http://www.w3.org/2000/svg" xmlns:xlink="http://www.w3.org/1999/xlink" width="210" height="30" style="background: #007808; border-radius: 0.25rem"><svg xmlns="http://www.w3.org/2000/svg" role="img" viewBox="0 0 24 24" width="36" style="fill: #ffffff"><title>FFmpeg</title><path d="M21.72 17.91V6.5l-.53-.49L9.05 18.52l-1.29-.06L24 1.53l-.33-.95-11.93 1-5.75 6.6v-.23l4.7-5.39-1.38-.77-9.11.77v2.85l1.91.46v.01l.19-.01-.56.66v10.6c.609-.126 1.22-.241 1.83-.36L14.12 5.22l.83-.04L0 21.44l9.67.82 1.35-.77 6.82-6.74v2.15l-5.72 5.57 11.26.95.35-.94v-3.16l-3.29-.18c.434-.403.858-.816 1.28-1.23z" /></svg><text x="18%" y="68%" style="fill: #ffffff; font-size: 90%; font-family: Verdana">FFmpeg</text></svg>