<?xml version="1.0" encoding="utf-8"?><svg xmlns="http://www.w3.org/2000/svg" xmlns:xlink="http://www.w3.org/1999/xlink" width="210" height="30" style="background: #343A40; border-radius: 0.25rem"><svg xmlns="http://www.w3.org/2000/svg" role="img" viewBox="0 0 24 24" width="36" style="fill: #ffffff"><title>Forestry</title><path d="M5.564.332v2.82L0 8.736l1.305 1.284 4.26-4.26v2.568L0 13.912l1.305 1.283 4.26-4.26v12.733h1.831V10.932l4.284 4.263 1.304-1.283-5.588-5.588V5.756l3.989 3.969 5.195 5.214v8.729h1.832v-8.725L24 9.355l-1.305-1.283-4.283 4.264V9.768L24 4.18l-1.305-1.284-4.283 4.264V.332H16.58v6.824l-4.26-4.26-1.304 1.284 5.564 5.584v2.568l-3.596-3.596-5.588-5.588V.332H5.564z" /></svg><text x="18%" y="68%" style="fill: #ffffff; font-size: 90%; font-family: Verdana">Forestry</text></svg>