<?xml version="1.0" encoding="utf-8"?><svg xmlns="http://www.w3.org/2000/svg" xmlns:xlink="http://www.w3.org/1999/xlink" width="210" height="30" style="background: #EE3124; border-radius: 0.25rem"><svg xmlns="http://www.w3.org/2000/svg" role="img" viewBox="0 0 24 24" width="36" style="fill: #ffffff"><title>Fortinet</title><path d="M0 9.785h6.788v4.454H0zm8.666-6.33h6.668v4.453H8.666zm0 12.637h6.668v4.454H8.666zm8.522-6.307H24v4.454h-6.812zM2.792 3.455C1.372 3.814.265 5.404 0 7.425v.506h6.788V3.454zM0 16.091v.554c.24 1.926 1.276 3.466 2.624 3.9h4.188v-4.454zm24-8.184v-.506c-.265-1.998-1.372-3.587-2.792-3.972h-4.02v4.454H24zM21.376 20.57c1.324-.458 2.36-1.974 2.624-3.9v-.554h-6.812v4.454Z" /></svg><text x="18%" y="68%" style="fill: #ffffff; font-size: 90%; font-family: Verdana">Fortinet</text></svg>