<?xml version="1.0" encoding="utf-8"?><svg xmlns="http://www.w3.org/2000/svg" xmlns:xlink="http://www.w3.org/1999/xlink" width="210" height="30" style="background: #000000; border-radius: 0.25rem"><svg xmlns="http://www.w3.org/2000/svg" role="img" viewBox="0 0 24 24" width="36" style="fill: #ffffff"><title>FOX</title><path d="M3.069 9.7h3.42L6.3 6.932H0v10.136h3.069V13.8h2.789v-2.778H3.069ZM24 6.932h-3.291L19.48 9.1l-1.231-2.168h-3.292l2.871 5.076-2.871 5.06h3.308l1.215-2.142 1.213 2.142H24l-2.871-5.06Zm-12.592 0A5.067 5.067 0 1 0 16.475 12a5.067 5.067 0 0 0-5.067-5.065Zm.888 7.146a.867.867 0 0 1-.873.847.847.847 0 0 1-.837-.858V9.919a.882.882 0 0 1 .837-.9.913.913 0 0 1 .873.9Z" /></svg><text x="18%" y="68%" style="fill: #ffffff; font-size: 90%; font-family: Verdana">FOX</text></svg>