<?xml version="1.0" encoding="utf-8"?><svg xmlns="http://www.w3.org/2000/svg" xmlns:xlink="http://www.w3.org/1999/xlink" width="210" height="30" style="background: #0CAA41; border-radius: 0.25rem"><svg xmlns="http://www.w3.org/2000/svg" role="img" viewBox="0 0 24 24" width="36" style="fill: #ffffff"><title>Glassdoor</title><path d="M17.144 20.572H3.43C3.43 22.465 4.963 24 6.856 24h10.286c1.893 0 3.428-1.535 3.428-3.428V6.492c0-.07-.054-.125-.124-.125h-3.18c-.067 0-.123.056-.123.126v14.08zm0-20.572c1.892 0 3.427 1.535 3.427 3.43H6.858v14.078c0 .068-.056.125-.125.125H3.554c-.07 0-.125-.057-.125-.125V3.428C3.43 1.536 4.963 0 6.856 0h10.287" /></svg><text x="18%" y="68%" style="fill: #ffffff; font-size: 90%; font-family: Verdana">Glassdoor</text></svg>