<?xml version="1.0" encoding="utf-8"?><svg xmlns="http://www.w3.org/2000/svg" xmlns:xlink="http://www.w3.org/1999/xlink" width="210" height="30" style="background: #94399E; border-radius: 0.25rem"><svg xmlns="http://www.w3.org/2000/svg" role="img" viewBox="0 0 24 24" width="36" style="fill: #ffffff"><title>GoCD</title><path d="M18.043 13.237l-8.907 5.935a1.47 1.47 0 01-.823.25 1.449 1.449 0 01-.696-.173 1.48 1.48 0 01-.784-1.308V12a1.482 1.482 0 112.957 0v3.163L14.537 12 7.478 7.304A1.49 1.49 0 119.13 4.823l8.913 5.94a1.492 1.492 0 010 2.474M12 0a12 12 0 1012 12A12.012 12.012 0 0012 0" /></svg><text x="18%" y="68%" style="fill: #ffffff; font-size: 90%; font-family: Verdana">GoCD</text></svg>