<?xml version="1.0" encoding="utf-8"?><svg xmlns="http://www.w3.org/2000/svg" xmlns:xlink="http://www.w3.org/1999/xlink" width="210" height="30" style="background: #4285F4; border-radius: 0.25rem"><svg xmlns="http://www.w3.org/2000/svg" role="img" viewBox="0 0 24 24" width="36" style="fill: #ffffff"><title>Google Fonts</title><path d="M4 2.8A3.6 3.6 0 1 0 4 10a3.6 3.6 0 0 0 0-7.2zm7.6 0v18.4h7.2a5.2 5.2 0 1 1 0-10.4 4 4 0 1 1 0-8zm7.2 0v8a4 4 0 1 0 0-8zm0 8v10.4A5.2 5.2 0 0 0 24 16a5.2 5.2 0 0 0-5.2-5.2zm-7.7-7.206L0 21.199h8.8l2.3-3.64Z" /></svg><text x="18%" y="68%" style="fill: #ffffff; font-size: 90%; font-family: Verdana">Google Fonts</text></svg>