<?xml version="1.0" encoding="utf-8"?><svg xmlns="http://www.w3.org/2000/svg" xmlns:xlink="http://www.w3.org/1999/xlink" width="210" height="30" style="background: #73DC8C; border-radius: 0.25rem"><svg xmlns="http://www.w3.org/2000/svg" role="img" viewBox="0 0 24 24" width="36" style="fill: #ffffff"><title>HTTPie</title><path d="M7.28 0C4.4 0 1.992 2.279 1.933 5.155a5.263 5.263 0 0 0 5.26 5.358h4.223a.306.306 0 0 1 .122.584l-6.47 2.835a5.263 5.263 0 0 0-3.135 4.85C1.953 21.683 4.368 24 7.273 24h2.212c2.922 0 5.357-2.345 5.35-5.267a5.263 5.263 0 0 0-3.29-4.867.303.303 0 0 1-.007-.556l7.402-3.246a5.263 5.263 0 0 0 3.128-4.846C22.047 2.317 19.626.003 16.724.003z" /></svg><text x="18%" y="68%" style="fill: #ffffff; font-size: 90%; font-family: Verdana">HTTPie</text></svg>