<?xml version="1.0" encoding="utf-8"?><svg xmlns="http://www.w3.org/2000/svg" xmlns:xlink="http://www.w3.org/1999/xlink" width="210" height="30" style="background: #666666; border-radius: 0.25rem"><svg xmlns="http://www.w3.org/2000/svg" role="img" viewBox="0 0 24 24" width="36" style="fill: #ffffff"><title>Internet Archive</title><path d="M22.667 22.884V24H1.333v-1.116zm-.842-1.675v1.396H2.175v-1.396zM4.233 6.14l.234.118.118 1.882.117 3.058v2.941l-.117 3.666-.02 2.47-.332.098H3.062l-.352-.098-.136-2.47-.118-3.646v-2.941l.118-3.078.107-1.892.244-.107zm16.842 0l.235.118.117 1.882.117 3.058v2.941l-.117 3.666-.02 2.47-.332.098h-1.171l-.352-.098-.137-2.47-.117-3.646v-2.941l.117-3.078.108-1.892.244-.107zm-11.79 0l.235.118.117 1.882.117 3.058v2.941l-.117 3.666-.02 2.47-.331.098H8.114l-.352-.098-.136-2.47-.117-3.646v-2.941l.117-3.078.107-1.892.244-.107zm6.457 0l.234.118.117 1.882.118 3.058v2.941l-.118 3.666-.019 2.47-.332.098H14.57l-.351-.098-.137-2.47-.117-3.646v-2.941l.117-3.078.108-1.892.244-.107zm6.083-2.511V5.58H2.175V3.628zM11.798 0l10.307 2.347-.413.723H1.951l-.618-.587Z" /></svg><text x="18%" y="68%" style="fill: #ffffff; font-size: 90%; font-family: Verdana">Internet Archive</text></svg>