<?xml version="1.0" encoding="utf-8"?><svg xmlns="http://www.w3.org/2000/svg" xmlns:xlink="http://www.w3.org/1999/xlink" width="210" height="30" style="background: #4092B4; border-radius: 0.25rem"><svg xmlns="http://www.w3.org/2000/svg" role="img" viewBox="0 0 24 24" width="36" style="fill: #ffffff"><title>Kuula</title><path d="M12 0C5.388 0 0 5.388 0 12s5.388 12 12 12 12-5.388 12-12S18.612 0 12 0Zm0 2.547A9.433 9.433 0 0 1 21.453 12 9.433 9.433 0 0 1 12 21.453 9.433 9.433 0 0 1 2.547 12 9.433 9.433 0 0 1 12 2.547Zm-.606 5.366 4.372-.693 2.01 3.944-3.13 3.13-3.944-2.01z" /></svg><text x="18%" y="68%" style="fill: #ffffff; font-size: 90%; font-family: Verdana">Kuula</text></svg>