<?xml version="1.0" encoding="utf-8"?><svg xmlns="http://www.w3.org/2000/svg" xmlns:xlink="http://www.w3.org/1999/xlink" width="210" height="30" style="background: #D32D27; border-radius: 0.25rem"><svg xmlns="http://www.w3.org/2000/svg" role="img" viewBox="0 0 24 24" width="36" style="fill: #ffffff"><title>LastPass</title><path d="M22.629,6.857c0-0.379,0.304-0.686,0.686-0.686C23.693,6.171,24,6.483,24,6.857 v10.286c0,0.379-0.304,0.686-0.686,0.686c-0.379,0-0.686-0.312-0.686-0.686V6.857z M2.057,10.286c1.136,0,2.057,0.921,2.057,2.057 S3.193,14.4,2.057,14.4S0,13.479,0,12.343S0.921,10.286,2.057,10.286z M9.6,10.286c1.136,0,2.057,0.921,2.057,2.057 S10.736,14.4,9.6,14.4s-2.057-0.921-2.057-2.057S8.464,10.286,9.6,10.286z M17.143,10.286c1.136,0,2.057,0.921,2.057,2.057 S18.279,14.4,17.143,14.4s-2.057-0.921-2.057-2.057S16.007,10.286,17.143,10.286z" /></svg><text x="18%" y="68%" style="fill: #ffffff; font-size: 90%; font-family: Verdana">LastPass</text></svg>