<?xml version="1.0" encoding="utf-8"?><svg xmlns="http://www.w3.org/2000/svg" xmlns:xlink="http://www.w3.org/1999/xlink" width="210" height="30" style="background: #000000; border-radius: 0.25rem"><svg xmlns="http://www.w3.org/2000/svg" role="img" viewBox="0 0 24 24" width="36" style="fill: #ffffff"><title>Mapbox</title><path d="M12 0C5.372 0 0 5.372 0 12s5.372 12 12 12 12-5.372 12-12S18.628 0 12 0zm5.696 14.943c-4.103 4.103-11.433 2.794-11.433 2.794S4.94 10.421 9.057 6.304c2.281-2.281 6.061-2.187 8.45.189s2.471 6.168.189 8.45zm-4.319-7.91l-1.174 2.416-2.416 1.174 2.416 1.174 1.174 2.416 1.174-2.416 2.416-1.174-2.416-1.174-1.174-2.416z" /></svg><text x="18%" y="68%" style="fill: #ffffff; font-size: 90%; font-family: Verdana">Mapbox</text></svg>