<?xml version="1.0" encoding="utf-8"?><svg xmlns="http://www.w3.org/2000/svg" xmlns:xlink="http://www.w3.org/1999/xlink" width="210" height="30" style="background: #525252; border-radius: 0.25rem"><svg xmlns="http://www.w3.org/2000/svg" role="img" viewBox="0 0 24 24" width="36" style="fill: #ffffff"><title>Max</title><path d="M1.769 0A1.77 1.77 0 0 0 0 1.769V22.23A1.77 1.77 0 0 0 1.769 24H22.23A1.77 1.77 0 0 0 24 22.231V1.77A1.77 1.77 0 0 0 22.231 0zm12.485 3.28a4.301 4.301 0 0 1 4.3 4.302 4.301 4.301 0 0 1-1.993 3.63 6.085 6.085 0 0 1 1.054 3.422 6.085 6.085 0 0 1-6.085 6.085 6.085 6.085 0 0 1-6.085-6.085 6.085 6.085 0 0 1 4.66-5.916 4.301 4.301 0 0 1-.152-1.136 4.301 4.301 0 0 1 4.301-4.301zm0 1.849a2.453 2.453 0 0 0-2.453 2.453 2.453 2.453 0 0 0 2.453 2.453 2.453 2.453 0 0 0 2.453-2.453 2.453 2.453 0 0 0-2.453-2.453zm-2.724 5.268a4.237 4.237 0 0 0-4.237 4.237 4.237 4.237 0 0 0 4.237 4.237 4.237 4.237 0 0 0 4.237-4.237 4.237 4.237 0 0 0-4.237-4.237zm.032 2.54a1.781 1.781 0 1 1 0 3.562 1.781 1.781 0 0 1 0-3.562Z" /></svg><text x="18%" y="68%" style="fill: #ffffff; font-size: 90%; font-family: Verdana">Max</text></svg>