<?xml version="1.0" encoding="utf-8"?><svg xmlns="http://www.w3.org/2000/svg" xmlns:xlink="http://www.w3.org/1999/xlink" width="210" height="30" style="background: #2D9FD9; border-radius: 0.25rem"><svg xmlns="http://www.w3.org/2000/svg" role="img" viewBox="0 0 24 24" width="36" style="fill: #ffffff"><title>Microsoft Academic</title><path d="M19.056 23.992c-4.018-2.966-10.695-8.022-19-9.125l3.55-3.472c10.19 3.935 15.45 12.597 15.45 12.597zM.48 18.437l2.77-2.217C11.334 18.208 18.19 24 18.19 24 15.303 22.37 7.113 18.36.48 18.437zm2.543-8.042l9.25-8.23 1.992 1.153L9.78 8.41c4.83 3.983 10.19 8.22 9.71 15.127C14.734 16.799 9.127 11.98 3.024 10.395zm7.907-2.131L18.035 0c3.791 3.1 5.91 7.913 5.91 10.513-.309 3.322-3.558 11.35-3.858 12.236-.225-2.007 1.434-5.56-9.157-14.485z" /></svg><text x="18%" y="68%" style="fill: #ffffff; font-size: 90%; font-family: Verdana">Microsoft Academic</text></svg>