<?xml version="1.0" encoding="utf-8"?><svg xmlns="http://www.w3.org/2000/svg" xmlns:xlink="http://www.w3.org/1999/xlink" width="210" height="30" style="background: #6A5FBB; border-radius: 0.25rem"><svg xmlns="http://www.w3.org/2000/svg" role="img" viewBox="0 0 24 24" width="36" style="fill: #ffffff"><title>Nintendo GameCube</title><path d="M6.816 15.126l4.703 2.715v-5.433L6.814 9.695v5.432zm-2.025 1.168l6.73 3.882v3.82L1.481 18.206V6.616l3.31 1.91v7.769zM12 6.145L7.298 8.863 12 11.579l4.704-2.717L12 6.146zm0-2.332l5.659 3.274 3.31-1.91L12 0 1.975 5.79 5.28 7.695zm7.207 12.48v-3.947l-2.023 1.167v1.614l-4.703 2.715v.005-5.436L22.518 6.62v11.587L12.48 24v-3.817l6.727-3.887z" /></svg><text x="18%" y="68%" style="fill: #ffffff; font-size: 90%; font-family: Verdana">Nintendo GameCube</text></svg>