<?xml version="1.0" encoding="utf-8"?><svg xmlns="http://www.w3.org/2000/svg" xmlns:xlink="http://www.w3.org/1999/xlink" width="210" height="30" style="background: #000000; border-radius: 0.25rem"><svg xmlns="http://www.w3.org/2000/svg" role="img" viewBox="0 0 24 24" width="36" style="fill: #ffffff"><title>Noun Project</title><path d="M17.672 8.846H24v6.327h-6.328zM6.328 11.99a3.164 3.164 0 0 1-3.164 3.163A3.164 3.164 0 0 1 0 11.991a3.164 3.164 0 0 1 3.164-3.164 3.164 3.164 0 0 1 3.164 3.164m5.504 1.142l2.04 2.021 1.142-1.16-2.022-2.003 2.022-2.003-1.142-1.142-2.04 2.003L9.81 8.846 8.649 9.988l2.022 2.003-2.022 2.003 1.16 1.16Z" /></svg><text x="18%" y="68%" style="fill: #ffffff; font-size: 90%; font-family: Verdana">Noun Project</text></svg>