<?xml version="1.0" encoding="utf-8"?><svg xmlns="http://www.w3.org/2000/svg" xmlns:xlink="http://www.w3.org/1999/xlink" width="210" height="30" style="background: #34E27A; border-radius: 0.25rem"><svg xmlns="http://www.w3.org/2000/svg" role="img" viewBox="0 0 24 24" width="36" style="fill: #ffffff"><title>Passport</title><path d="M11.875 0A9.6 9.6 0 0 0 2.4 9.475h4.8A4.81 4.81 0 0 1 11.875 4.8zm.25 0v4.8A4.81 4.81 0 0 1 16.8 9.475h4.8A9.6 9.6 0 0 0 12.125 0zM2.4 9.725V24H12v-4.8H7.2V9.724zm9.6 9.474a9.599 9.599 0 0 0 9.6-9.474h-4.8A4.807 4.807 0 0 1 12 14.4z" /></svg><text x="18%" y="68%" style="fill: #ffffff; font-size: 90%; font-family: Verdana">Passport</text></svg>