<?xml version="1.0" encoding="utf-8"?><svg xmlns="http://www.w3.org/2000/svg" xmlns:xlink="http://www.w3.org/1999/xlink" width="210" height="30" style="background: #4285F4; border-radius: 0.25rem"><svg xmlns="http://www.w3.org/2000/svg" role="img" viewBox="0 0 24 24" width="36" style="fill: #ffffff"><title>Plus Codes</title><path d="M12 0a2.4 2.4 0 00-2.4 2.4A2.4 2.4 0 0012 4.8a2.4 2.4 0 002.4-2.4A2.4 2.4 0 0012 0zM9.543 9.543v4.914h4.914V9.543zM2.4 9.6A2.4 2.4 0 000 12a2.4 2.4 0 002.4 2.4A2.4 2.4 0 004.8 12a2.4 2.4 0 00-2.4-2.4zm19.2 0a2.4 2.4 0 00-2.4 2.4 2.4 2.4 0 002.4 2.4A2.4 2.4 0 0024 12a2.4 2.4 0 00-2.4-2.4zM12 19.2a2.4 2.4 0 00-2.4 2.4A2.4 2.4 0 0012 24a2.4 2.4 0 002.4-2.4 2.4 2.4 0 00-2.4-2.4z" /></svg><text x="18%" y="68%" style="fill: #ffffff; font-size: 90%; font-family: Verdana">Plus Codes</text></svg>