<?xml version="1.0" encoding="utf-8"?><svg xmlns="http://www.w3.org/2000/svg" xmlns:xlink="http://www.w3.org/1999/xlink" width="210" height="30" style="background: #F2C811; border-radius: 0.25rem"><svg xmlns="http://www.w3.org/2000/svg" role="img" viewBox="0 0 24 24" width="36" style="fill: #ffffff"><title>Power BI</title><path d="M10 12a1 1 0 0 1 1 1v11H4a1 1 0 0 1-1-1V13a1 1 0 0 1 1-1h6Zm-2-.5V7a1 1 0 0 1 1-1h6a1 1 0 0 1 1 1v17h-4.5V13a1.5 1.5 0 0 0-1.5-1.5H8Zm5-6V1a1 1 0 0 1 1-1h6a1 1 0 0 1 1 1v22a1 1 0 0 1-1 1h-3.5V7A1.5 1.5 0 0 0 15 5.5h-2Z" /></svg><text x="18%" y="68%" style="fill: #ffffff; font-size: 90%; font-family: Verdana">Power BI</text></svg>