<?xml version="1.0" encoding="utf-8"?><svg xmlns="http://www.w3.org/2000/svg" xmlns:xlink="http://www.w3.org/1999/xlink" width="210" height="30" style="background: #DA552F; border-radius: 0.25rem"><svg xmlns="http://www.w3.org/2000/svg" role="img" viewBox="0 0 24 24" width="36" style="fill: #ffffff"><title>Product Hunt</title><path d="M13.604 8.4h-3.405V12h3.405c.995 0 1.801-.806 1.801-1.801 0-.993-.805-1.799-1.801-1.799zM12 0C5.372 0 0 5.372 0 12s5.372 12 12 12 12-5.372 12-12S18.628 0 12 0zm1.604 14.4h-3.405V18H7.801V6h5.804c2.319 0 4.2 1.88 4.2 4.199 0 2.321-1.881 4.201-4.201 4.201z" /></svg><text x="18%" y="68%" style="fill: #ffffff; font-size: 90%; font-family: Verdana">Product Hunt</text></svg>