<?xml version="1.0" encoding="utf-8"?><svg xmlns="http://www.w3.org/2000/svg" xmlns:xlink="http://www.w3.org/1999/xlink" width="210" height="30" style="background: #56B366; border-radius: 0.25rem"><svg xmlns="http://www.w3.org/2000/svg" role="img" viewBox="0 0 24 24" width="36" style="fill: #ffffff"><title>ProtonVPN</title><path d="M22.971 2.68a2.68 2.68 0 1 0-5.361 0v.082L5.927 6.534a2.68 2.68 0 1 0-2.218 4.187c.279-.004.555-.052.819-.142l7.673 9.69a2.68 2.68 0 1 0 4.211-.984l4.08-13.937a2.669 2.669 0 0 0 2.479-2.668zm-8.29 15.905c-.414.005-.82.107-1.187.296L5.998 9.393a2.66 2.66 0 0 0 .38-1.115L18.31 4.47c.124.14.263.267.415.379l-4.033 13.735h-.012z" /></svg><text x="18%" y="68%" style="fill: #ffffff; font-size: 90%; font-family: Verdana">ProtonVPN</text></svg>