<?xml version="1.0" encoding="utf-8"?><svg xmlns="http://www.w3.org/2000/svg" xmlns:xlink="http://www.w3.org/1999/xlink" width="210" height="30" style="background: #14161A; border-radius: 0.25rem"><svg xmlns="http://www.w3.org/2000/svg" role="img" viewBox="0 0 24 24" width="36" style="fill: #ffffff"><title>PureScript</title><path d="M19.166 4.6l-1.24 1.24 3.97 3.97-3.97 3.97 1.24 1.24 4.58-4.6a.87.87 0 0 0 0-1.23zM6.955 6.74l1.87 1.75h8.23l-1.87-1.75zm-2.1 2.24l-4.6 4.6a.87.87 0 0 0 0 1.23l4.6 4.59 1.23-1.24-3.97-3.97 3.97-3.97-1.24-1.24zm3.97 2.14l-1.87 1.76h8.23l1.87-1.76zm-1.87 4.39l1.87 1.75h8.23l-1.87-1.75z" /></svg><text x="18%" y="68%" style="fill: #ffffff; font-size: 90%; font-family: Verdana">PureScript</text></svg>