<?xml version="1.0" encoding="utf-8"?><svg xmlns="http://www.w3.org/2000/svg" xmlns:xlink="http://www.w3.org/1999/xlink" width="210" height="30" style="background: #FEDA03; border-radius: 0.25rem"><svg xmlns="http://www.w3.org/2000/svg" role="img" viewBox="0 0 24 24" width="36" style="fill: #ffffff"><title>Rarible</title><path d="M4.8 0A4.79 4.79 0 000 4.8v14.4A4.79 4.79 0 004.8 24h14.4a4.79 4.79 0 004.8-4.8V4.8A4.79 4.79 0 0019.2 0zm1.32 7.68h8.202c2.06 0 3.666.44 3.666 2.334 0 1.137-.671 1.702-1.427 1.898.904.268 1.558 1 1.558 2.16v2.131h-3.451V14.18c0-.62-.37-.87-1-.87H9.572v2.893H6.12zm3.452 2.5v.834h4.155c.452 0 .726-.06.726-.416 0-.358-.274-.418-.726-.418z" /></svg><text x="18%" y="68%" style="fill: #ffffff; font-size: 90%; font-family: Verdana">Rarible</text></svg>