<?xml version="1.0" encoding="utf-8"?><svg xmlns="http://www.w3.org/2000/svg" xmlns:xlink="http://www.w3.org/1999/xlink" width="210" height="30" style="background: #F26207; border-radius: 0.25rem"><svg xmlns="http://www.w3.org/2000/svg" role="img" viewBox="0 0 24 24" width="36" style="fill: #ffffff"><title>Replit</title><path d="M2 1.5A1.5 1.5 0 0 1 3.5 0h7A1.5 1.5 0 0 1 12 1.5V8H3.5A1.5 1.5 0 0 1 2 6.5ZM12 8h8.5A1.5 1.5 0 0 1 22 9.5v5a1.5 1.5 0 0 1-1.5 1.5H12ZM2 17.5A1.5 1.5 0 0 1 3.5 16H12v6.5a1.5 1.5 0 0 1-1.5 1.5h-7A1.5 1.5 0 0 1 2 22.5Z" /></svg><text x="18%" y="68%" style="fill: #ffffff; font-size: 90%; font-family: Verdana">Replit</text></svg>