<?xml version="1.0" encoding="utf-8"?><svg xmlns="http://www.w3.org/2000/svg" xmlns:xlink="http://www.w3.org/1999/xlink" width="210" height="30" style="background: #2B283A; border-radius: 0.25rem"><svg xmlns="http://www.w3.org/2000/svg" role="img" viewBox="0 0 24 24" width="36" style="fill: #ffffff"><title>Scrimba</title><path d="M24 6.222a2.222 2.222 0 01-2.222 2.222h-8.89a2.222 2.222 0 010-4.444h8.89C23.005 4 24 4.995 24 6.222zm-7.333 9.334h-8.89a2.222 2.222 0 000 4.444h8.89a2.222 2.222 0 000-4.444zm0-5.778H13.11a2.222 2.222 0 000 4.444h3.556a2.222 2.222 0 000-4.444zM2.222 15.556a2.222 2.222 0 100 4.444 2.222 2.222 0 000-4.444z" /></svg><text x="18%" y="68%" style="fill: #ffffff; font-size: 90%; font-family: Verdana">Scrimba</text></svg>