<?xml version="1.0" encoding="utf-8"?><svg xmlns="http://www.w3.org/2000/svg" xmlns:xlink="http://www.w3.org/1999/xlink" width="210" height="30" style="background: #000000; border-radius: 0.25rem"><svg xmlns="http://www.w3.org/2000/svg" role="img" viewBox="0 0 24 24" width="36" style="fill: #ffffff"><title>Sennheiser</title><path d="M0 3v18h24V3zm13.209 1.659c-1.428.548-2.799 1.757-3.905 4.182-.321.703-.925 2.062-1.2 2.67-2.224 4.882-3.364 5.932-6.72 5.932V4.35H13.15c.184-.011.235.25.06.309zm9.428 1.894V19.65H10.851c-.181.005-.227-.25-.055-.309 1.427-.548 2.798-1.757 3.904-4.182.321-.703.926-2.062 1.2-2.67 2.22-4.882 3.36-5.932 6.716-5.932z" /></svg><text x="18%" y="68%" style="fill: #ffffff; font-size: 90%; font-family: Verdana">Sennheiser</text></svg>