<?xml version="1.0" encoding="utf-8"?><svg xmlns="http://www.w3.org/2000/svg" xmlns:xlink="http://www.w3.org/1999/xlink" width="210" height="30" style="background: #89C967; border-radius: 0.25rem"><svg xmlns="http://www.w3.org/2000/svg" role="img" viewBox="0 0 24 24" width="36" style="fill: #ffffff"><title>Sensu</title><path d="M24 12L12 0 0 12l12 12 12-12zM12 3.197l4.418 4.418c-1.445-.386-2.93-.586-4.418-.586s-2.974.199-4.418.588L12 3.196zM8.069 16.87c1.19-.658 2.534-1.008 3.931-1.008s2.741.35 3.931 1.008L12 20.804 8.069 16.87zm9.509-1.647c-1.697-1.08-3.636-1.622-5.578-1.622s-3.881.542-5.578 1.622l-3.103-3.101C5.822 10.284 8.834 9.29 12 9.29s6.178.994 8.681 2.832l-3.103 3.101z" /></svg><text x="18%" y="68%" style="fill: #ffffff; font-size: 90%; font-family: Verdana">Sensu</text></svg>