<?xml version="1.0" encoding="utf-8"?><svg xmlns="http://www.w3.org/2000/svg" xmlns:xlink="http://www.w3.org/1999/xlink" width="210" height="30" style="background: #99CC00; border-radius: 0.25rem"><svg xmlns="http://www.w3.org/2000/svg" role="img" viewBox="0 0 24 24" width="36" style="fill: #ffffff"><title>sharp</title><path d="M14.2209.0875v5.9613l-3.7433.5012v3.5233l3.7433-.5012v3.5735l3.492-.4672V9.1047L24 8.2634l-.4631-3.4613-5.824.7794V.0875zM6.287 1.145v5.9618L0 7.9483l.4634 3.4613 5.8514-.7834 3.4644-.4637V1.145zm3.5198 9.7185l-3.492.4675v3.578l-6.183.8276.4633 3.4613 5.8239-.7796v5.4942h3.492v-5.962l3.6114-.4834V13.944l-3.7156.4973zm13.73 1.7405l-5.824.779-3.492.4673v9.0179h3.492v-5.9618L24 16.0652Z" /></svg><text x="18%" y="68%" style="fill: #ffffff; font-size: 90%; font-family: Verdana">sharp</text></svg>