<?xml version="1.0" encoding="utf-8"?><svg xmlns="http://www.w3.org/2000/svg" xmlns:xlink="http://www.w3.org/1999/xlink" width="210" height="30" style="background: #2F2E8B; border-radius: 0.25rem"><svg xmlns="http://www.w3.org/2000/svg" role="img" viewBox="0 0 24 24" width="36" style="fill: #ffffff"><title>Strapi</title><path d="M7.684 0v8.035h7.775c.28 0 .502.236.502.483v7.802h8.025V.502A.502.502 0 0023.484 0zm-.5.5L.086 7.607a.251.251 0 00.178.428h6.92zm.5 8.035v7.283c0 .278.224.502.502.502h7.275V9.018c0-.278-.224-.482-.502-.483zm8.277 8.285v6.928c0 .224.271.336.43.178l7.095-7.106z" /></svg><text x="18%" y="68%" style="fill: #ffffff; font-size: 90%; font-family: Verdana">Strapi</text></svg>