<?xml version="1.0" encoding="utf-8"?><svg xmlns="http://www.w3.org/2000/svg" xmlns:xlink="http://www.w3.org/1999/xlink" width="210" height="30" style="background: #000000; border-radius: 0.25rem"><svg xmlns="http://www.w3.org/2000/svg" role="img" viewBox="0 0 24 24" width="36" style="fill: #ffffff"><title>Tamiya</title><path d="M0 6.408v4.27h4.496l1.36-4.27Zm5.856 0 1.398 4.27h4.496v-4.27Zm5.894 4.27-3.627 2.644 1.398 4.27h2.23Zm-2.23 6.914-3.664-2.645-3.627 2.645Zm-7.291 0 1.398-4.27L0 10.678v6.914zM12.25 6.408v4.27h4.496l1.36-4.27zm5.856 0 1.398 4.27H24v-4.27ZM24 10.678l-3.627 2.644 1.398 4.27H24Zm-2.23 6.914-3.664-2.645-3.627 2.645zm-7.29 0 1.397-4.27-3.627-2.644v6.914z" /></svg><text x="18%" y="68%" style="fill: #ffffff; font-size: 90%; font-family: Verdana">Tamiya</text></svg>