<?xml version="1.0" encoding="utf-8"?><svg xmlns="http://www.w3.org/2000/svg" xmlns:xlink="http://www.w3.org/1999/xlink" width="210" height="30" style="background: #000000; border-radius: 0.25rem"><svg xmlns="http://www.w3.org/2000/svg" role="img" viewBox="0 0 24 24" width="36" style="fill: #ffffff"><title>Tistory</title><path d="M0 3a3 3 0 1 0 6 0 3 3 0 0 0-6 0m9 18a3 3 0 1 0 6 0 3 3 0 0 0-6 0m0-9a3 3 0 1 0 6 0 3 3 0 0 0-6 0m0-9a3 3 0 1 0 6 0 3 3 0 0 0-6 0m9 0a3 3 0 1 0 6 0 3 3 0 0 0-6 0" /></svg><text x="18%" y="68%" style="fill: #ffffff; font-size: 90%; font-family: Verdana">Tistory</text></svg>