<?xml version="1.0" encoding="utf-8"?><svg xmlns="http://www.w3.org/2000/svg" xmlns:xlink="http://www.w3.org/1999/xlink" width="210" height="30" style="background: #1BB91F; border-radius: 0.25rem"><svg xmlns="http://www.w3.org/2000/svg" role="img" viewBox="0 0 24 24" width="36" style="fill: #ffffff"><title>tmux</title><path d="M24 2.251V10.5H12.45V0h9.3A2.251 2.251 0 0 1 24 2.251zM12.45 11.4H24v10.5h-.008A2.25 2.25 0 0 1 21.75 24H2.25a2.247 2.247 0 0 1-2.242-2.1H0V2.251A2.251 2.251 0 0 1 2.25 0h9.3v21.6h.9V11.4zm11.242 10.5H.308a1.948 1.948 0 0 0 1.942 1.8h19.5a1.95 1.95 0 0 0 1.942-1.8z" /></svg><text x="18%" y="68%" style="fill: #ffffff; font-size: 90%; font-family: Verdana">tmux</text></svg>