<?xml version="1.0" encoding="utf-8"?><svg xmlns="http://www.w3.org/2000/svg" xmlns:xlink="http://www.w3.org/1999/xlink" width="210" height="30" style="background: #007BFC; border-radius: 0.25rem"><svg xmlns="http://www.w3.org/2000/svg" role="img" viewBox="0 0 24 24" width="36" style="fill: #ffffff"><title>Vultr</title><path d="M8.36 2.172A1.194 1.194 0 007.348 1.6H1.2A1.2 1.2 0 000 2.8a1.211 1.211 0 00.182.64l11.6 18.4a1.206 1.206 0 002.035 0l3.075-4.874a1.229 1.229 0 00.182-.64 1.211 1.211 0 00-.182-.642zm10.349 8.68a1.206 1.206 0 002.035 0L21.8 9.178l2.017-3.2a1.211 1.211 0 00.183-.64 1.229 1.229 0 00-.183-.64l-1.6-2.526a1.206 1.206 0 00-1.016-.571h-6.148a1.2 1.2 0 00-1.201 1.2 1.143 1.143 0 00.188.64z" /></svg><text x="18%" y="68%" style="fill: #ffffff; font-size: 90%; font-family: Verdana">Vultr</text></svg>