<?xml version="1.0" encoding="utf-8"?><svg xmlns="http://www.w3.org/2000/svg" xmlns:xlink="http://www.w3.org/1999/xlink" width="210" height="30" style="background: #F93821; border-radius: 0.25rem"><svg xmlns="http://www.w3.org/2000/svg" role="img" viewBox="0 0 24 24" width="36" style="fill: #ffffff"><title>Winamp</title><path d="M11.902 0a.987.987 0 0 0-.91.604l-6.139 14.57c-.176.42.131.883.586.883H8.66a.987.987 0 0 0 .91-.604L15.707.883A.636.636 0 0 0 15.12 0h-3.219Zm3.438 7.943a.987.987 0 0 0-.91.604l-6.137 14.57c-.177.42.13.883.586.883h3.219a.987.987 0 0 0 .91-.604l6.138-14.57a.636.636 0 0 0-.586-.883h-3.22Z" /></svg><text x="18%" y="68%" style="fill: #ffffff; font-size: 90%; font-family: Verdana">Winamp</text></svg>