<?xml version="1.0" encoding="utf-8"?><svg xmlns="http://www.w3.org/2000/svg" xmlns:xlink="http://www.w3.org/1999/xlink" width="210" height="30" style="background: #FF0000; border-radius: 0.25rem"><svg xmlns="http://www.w3.org/2000/svg" role="img" viewBox="0 0 24 24" width="36" style="fill: #ffffff"><title>YouTube Gaming</title><path d="M24 13.2v-6l-6-3.6-6 3.6-6-3.6-6 3.6v6l12 7.2zM8.4 10.8H6v2.4H4.8v-2.4H2.4V9.6h2.4V7.2H6v2.4h2.4zm7.2 2.4a1.2 1.2 0 01-1.2-1.2c0-.66.54-1.2 1.2-1.2.66 0 1.2.54 1.2 1.2 0 .66-.54 1.2-1.2 1.2zm3.6-2.4A1.2 1.2 0 0118 9.6c0-.66.54-1.2 1.2-1.2.66 0 1.2.54 1.2 1.2 0 .66-.54 1.2-1.2 1.2Z" /></svg><text x="18%" y="68%" style="fill: #ffffff; font-size: 90%; font-family: Verdana">YouTube Gaming</text></svg>