<?xml version="1.0" encoding="utf-8"?><svg xmlns="http://www.w3.org/2000/svg" xmlns:xlink="http://www.w3.org/1999/xlink" width="210" height="30" style="background: #3EA8FF; border-radius: 0.25rem"><svg xmlns="http://www.w3.org/2000/svg" role="img" viewBox="0 0 24 24" width="36" style="fill: #ffffff"><title>Zenn</title><path d="M.264 23.771h4.984c.264 0 .498-.147.645-.352L19.614.874c.176-.293-.029-.645-.381-.645h-4.72c-.235 0-.44.117-.557.323L.03 23.361c-.088.176.029.41.234.41zM17.445 23.419l6.479-10.408c.205-.323-.029-.733-.41-.733h-4.691c-.176 0-.352.088-.44.235l-6.655 10.643c-.176.264.029.616.352.616h4.779c.234-.001.468-.118.586-.353z" /></svg><text x="18%" y="68%" style="fill: #ffffff; font-size: 90%; font-family: Verdana">Zenn</text></svg>